<?xml version="1.0" standalone="no"?>
<!DOCTYPE svg PUBLIC "-//W3C//DTD SVG 20010904//EN"
 "http://www.w3.org/TR/2001/REC-SVG-20010904/DTD/svg10.dtd">
<svg version="1.0" xmlns="http://www.w3.org/2000/svg"
 width="1024.000000pt" height="1024.000000pt" viewBox="0 0 1024.000000 1024.000000"
 preserveAspectRatio="xMidYMid meet">

<g transform="translate(0.000000,1024.000000) scale(0.100000,-0.100000)"
fill="#000000" stroke="none">
<path d="M2215 9530 c-162 -12 -291 -43 -477 -116 -508 -198 -891 -659 -1000
-1207 l-23 -112 -3 -2960 c-3 -3069 -3 -3120 38 -3306 121 -555 540 -1017
1089 -1199 145 -48 237 -67 393 -80 83 -8 1058 -10 3023 -7 3191 4 2944 -1
3170 63 539 152 983 598 1135 1141 64 228 61 25 57 3348 l-3 3020 -21 97 c-83
373 -280 706 -556 935 -273 227 -581 354 -934 383 -137 11 -5730 11 -5888 0z
m5206 -924 c66 -25 123 -78 156 -144 27 -57 28 -58 31 -292 l3 -235 -253 -114
c-139 -63 -257 -118 -262 -122 -5 -5 -3 -10 5 -13 8 -3 97 -34 199 -70 102
-35 198 -69 213 -75 l29 -11 -49 -54 c-26 -29 -129 -143 -229 -252 -100 -109
-281 -309 -404 -444 -122 -135 -286 -314 -364 -399 l-141 -154 -3 1076 c-2
1052 -2 1077 18 1129 36 97 116 168 211 188 24 4 213 7 419 6 330 -2 381 -4
421 -20z m904 -693 c-129 -543 -200 -822 -206 -816 -3 5 -31 69 -62 143 -84
202 -98 233 -107 224 -4 -5 -67 -76 -141 -159 -118 -132 -887 -980 -1134
-1250 -179 -195 -502 -553 -658 -727 -87 -98 -168 -185 -180 -193 -39 -27 -96
-19 -171 25 -37 22 -69 40 -71 40 -1 0 -71 39 -156 87 -85 47 -212 118 -284
158 -71 39 -209 116 -305 169 -320 179 -298 169 -318 154 -25 -18 -596 -530
-1302 -1168 -282 -255 -919 -828 -953 -858 -52 -45 -97 -44 -143 2 -28 28 -34
41 -34 77 0 49 -39 9 380 385 141 126 355 319 475 429 333 303 1434 1293 1502
1349 27 23 45 29 78 29 24 0 50 -5 57 -10 7 -6 74 -45 148 -85 134 -74 205
-114 435 -243 127 -71 432 -241 526 -293 l57 -31 298 332 c165 182 342 379
395 437 130 143 1076 1184 1219 1343 63 70 116 131 118 136 1 4 -62 24 -140
44 -206 53 -219 57 -214 66 3 4 83 40 178 79 315 131 733 300 744 301 7 1 -6
-69 -31 -176z m-2657 -888 c77 -23 132 -69 170 -144 l32 -64 0 -562 0 -562
-71 -82 -71 -81 -82 43 c-44 24 -196 108 -336 187 -421 237 -654 366 -672 373
-17 6 -18 32 -18 349 0 312 2 347 19 384 37 80 112 144 196 165 17 4 199 7
406 8 310 1 384 -2 427 -14z m1937 -1667 c-4 -834 -11 -1519 -16 -1539 -19
-75 -97 -155 -178 -184 -65 -23 -796 -22 -864 1 -62 21 -127 80 -161 148 l-28
55 -5 823 -5 823 183 200 c581 639 866 952 959 1057 58 64 109 118 113 118 5
0 5 -676 2 -1502z m-3681 379 l29 -13 -84 -74 c-46 -41 -131 -118 -189 -170
-58 -53 -148 -134 -200 -181 -52 -47 -178 -159 -278 -249 -101 -91 -214 -191
-250 -223 l-67 -58 -3 368 c-3 423 -2 429 78 517 45 49 89 74 155 89 11 3 191
5 400 5 280 1 388 -2 409 -11z m1000 -324 c133 -74 311 -174 396 -222 85 -49
202 -114 260 -147 l105 -59 93 0 92 0 0 -562 c0 -548 -1 -564 -21 -619 -26
-70 -72 -122 -136 -154 l-48 -25 -425 0 -425 0 -45 27 c-56 33 -92 70 -122
128 l-23 45 -3 878 -2 878 31 -17 c18 -9 140 -77 273 -151z m-809 -1597 c-21
-72 -75 -132 -149 -167 l-60 -29 -386 1 c-375 0 -451 5 -474 30 -8 9 -7 11 6
6 9 -3 22 1 30 11 12 15 11 16 -4 3 -16 -12 -18 -11 -18 3 0 13 -4 14 -24 4
-22 -9 -29 -7 -65 27 -64 61 -84 119 -89 260 l-4 120 148 135 c81 74 204 187
273 250 69 63 194 176 276 250 83 74 215 193 294 265 79 71 169 152 200 178
l56 48 3 -671 c2 -579 0 -679 -13 -724z m-270 -825 c85 -21 209 -68 250 -95
l25 -16 -24 -63 c-13 -34 -37 -92 -53 -128 l-28 -66 -65 33 c-129 66 -251 94
-415 94 -128 0 -191 -15 -253 -60 -52 -37 -72 -76 -72 -138 0 -109 79 -161
335 -218 201 -45 381 -104 456 -150 105 -63 161 -150 179 -275 56 -394 -342
-627 -911 -534 -142 24 -325 91 -418 154 -11 7 -4 32 40 135 l53 126 26 -17
c139 -94 345 -153 528 -153 227 0 352 68 352 193 0 116 -69 157 -405 240 -313
77 -419 127 -502 235 -47 61 -58 110 -58 247 0 115 2 123 33 186 74 152 235
252 470 289 95 15 365 4 457 -19z m1592 18 c43 -5 112 -19 153 -31 92 -25 230
-87 230 -103 0 -10 -84 -227 -95 -245 -3 -5 -25 3 -49 16 -63 35 -191 80 -267
94 -35 7 -110 12 -165 12 -167 0 -272 -43 -314 -128 -37 -75 -19 -143 52 -198
46 -35 89 -49 327 -107 320 -79 400 -114 494 -218 66 -75 91 -159 85 -286 -4
-77 -11 -104 -36 -160 -89 -190 -318 -297 -637 -298 -165 0 -284 19 -435 69
-106 35 -230 99 -230 119 0 5 23 63 51 127 l52 117 51 -30 c85 -50 156 -79
256 -106 124 -34 350 -39 443 -10 111 34 169 115 148 209 -19 85 -91 124 -336
184 -236 57 -297 75 -382 114 -146 68 -223 163 -244 302 -27 180 46 345 198
449 62 43 180 87 275 103 102 17 270 20 375 5z m2183 -149 l0 -130 -455 0
-455 0 0 -230 0 -230 400 0 401 0 -3 -132 -3 -133 -397 -3 -398 -2 0 -310 0
-310 -170 0 -170 0 0 805 0 805 625 0 625 0 0 -130z"/>
<path d="M7509 3723 c-13 -16 -12 -17 4 -4 16 13 21 21 13 21 -2 0 -10 -8 -17
-17z"/>
<path d="M3115 3760 c3 -5 8 -10 11 -10 2 0 4 5 4 10 0 6 -5 10 -11 10 -5 0
-7 -4 -4 -10z"/>
<path d="M3030 3738 c0 -14 18 -17 28 -5 8 10 6 13 -9 13 -10 0 -19 -4 -19 -8z"/>
<path d="M3005 3690 c3 -5 8 -10 11 -10 2 0 4 5 4 10 0 6 -5 10 -11 10 -5 0
-7 -4 -4 -10z"/>
<path d="M3949 3663 c-12 -16 -12 -17 1 -7 8 6 22 14 30 17 13 5 12 6 -1 6 -9
1 -23 -7 -30 -16z"/>
</g>
</svg>
